<mxfile host="app.diagrams.net" agent="Mozilla/5.0 (X11; Linux x86_64) AppleWebKit/537.36 (KHTML, like Gecko) Chrome/131.0.0.0 Safari/537.36" version="26.0.14">
  <diagram name="第 1 页" id="PajUjWCDUV906s8eUJYs">
    <mxGraphModel dx="1988" dy="1146" grid="1" gridSize="10" guides="1" tooltips="1" connect="1" arrows="1" fold="1" page="1" pageScale="1" pageWidth="827" pageHeight="1169" math="0" shadow="0">
      <root>
        <mxCell id="0" />
        <mxCell id="1" parent="0" />
        <mxCell id="Abq7OYbbDOrDG2ES5n0c-3" value="" style="edgeStyle=orthogonalEdgeStyle;rounded=0;orthogonalLoop=1;jettySize=auto;html=1;" edge="1" parent="1" source="Abq7OYbbDOrDG2ES5n0c-1" target="Abq7OYbbDOrDG2ES5n0c-2">
          <mxGeometry relative="1" as="geometry" />
        </mxCell>
        <mxCell id="Abq7OYbbDOrDG2ES5n0c-1" value="&lt;font style=&quot;font-size: 17px;&quot;&gt;加载畸变参数&lt;/font&gt;&lt;div&gt;&lt;font style=&quot;font-size: 17px;&quot;&gt;.xlsx&lt;/font&gt;&lt;/div&gt;" style="rounded=0;whiteSpace=wrap;html=1;" vertex="1" parent="1">
          <mxGeometry x="270" y="130" width="140" height="60" as="geometry" />
        </mxCell>
        <mxCell id="Abq7OYbbDOrDG2ES5n0c-5" value="" style="edgeStyle=orthogonalEdgeStyle;rounded=0;orthogonalLoop=1;jettySize=auto;html=1;" edge="1" parent="1" source="Abq7OYbbDOrDG2ES5n0c-2" target="Abq7OYbbDOrDG2ES5n0c-4">
          <mxGeometry relative="1" as="geometry" />
        </mxCell>
        <mxCell id="Abq7OYbbDOrDG2ES5n0c-2" value="&lt;span style=&quot;font-size: 17px;&quot;&gt;去畸变&lt;/span&gt;" style="rounded=0;whiteSpace=wrap;html=1;" vertex="1" parent="1">
          <mxGeometry x="270" y="220" width="140" height="60" as="geometry" />
        </mxCell>
        <mxCell id="Abq7OYbbDOrDG2ES5n0c-7" value="" style="edgeStyle=orthogonalEdgeStyle;rounded=0;orthogonalLoop=1;jettySize=auto;html=1;" edge="1" parent="1" source="Abq7OYbbDOrDG2ES5n0c-4" target="Abq7OYbbDOrDG2ES5n0c-6">
          <mxGeometry relative="1" as="geometry" />
        </mxCell>
        <mxCell id="Abq7OYbbDOrDG2ES5n0c-4" value="&lt;span style=&quot;font-size: 17px;&quot;&gt;检测大黑块角点&lt;/span&gt;" style="rounded=0;whiteSpace=wrap;html=1;" vertex="1" parent="1">
          <mxGeometry x="270" y="310" width="140" height="60" as="geometry" />
        </mxCell>
        <mxCell id="Abq7OYbbDOrDG2ES5n0c-9" value="" style="edgeStyle=orthogonalEdgeStyle;rounded=0;orthogonalLoop=1;jettySize=auto;html=1;" edge="1" parent="1" source="Abq7OYbbDOrDG2ES5n0c-6" target="Abq7OYbbDOrDG2ES5n0c-8">
          <mxGeometry relative="1" as="geometry" />
        </mxCell>
        <mxCell id="Abq7OYbbDOrDG2ES5n0c-6" value="&lt;span style=&quot;font-size: 17px;&quot;&gt;计算与标定版角点的变换矩阵&lt;/span&gt;" style="rounded=0;whiteSpace=wrap;html=1;" vertex="1" parent="1">
          <mxGeometry x="270" y="400" width="140" height="60" as="geometry" />
        </mxCell>
        <mxCell id="Abq7OYbbDOrDG2ES5n0c-11" value="" style="edgeStyle=orthogonalEdgeStyle;rounded=0;orthogonalLoop=1;jettySize=auto;html=1;" edge="1" parent="1" source="Abq7OYbbDOrDG2ES5n0c-8" target="Abq7OYbbDOrDG2ES5n0c-10">
          <mxGeometry relative="1" as="geometry" />
        </mxCell>
        <mxCell id="Abq7OYbbDOrDG2ES5n0c-8" value="&lt;span style=&quot;font-size: 17px;&quot;&gt;映射为俯视视角&lt;/span&gt;" style="rounded=0;whiteSpace=wrap;html=1;" vertex="1" parent="1">
          <mxGeometry x="270" y="490" width="140" height="60" as="geometry" />
        </mxCell>
        <mxCell id="Abq7OYbbDOrDG2ES5n0c-10" value="&lt;span style=&quot;font-size: 17px;&quot;&gt;四个视角拼接&lt;/span&gt;" style="rounded=0;whiteSpace=wrap;html=1;" vertex="1" parent="1">
          <mxGeometry x="270" y="580" width="140" height="60" as="geometry" />
        </mxCell>
      </root>
    </mxGraphModel>
  </diagram>
</mxfile>
